<mxfile host="app.diagrams.net" modified="2024-04-18T16:39:50.284Z" agent="Mozilla/5.0 (Windows NT 10.0; Win64; x64) AppleWebKit/537.36 (KHTML, like Gecko) Chrome/123.0.0.0 Safari/537.36" etag="deMQjSLa9V8qcC9aEtqd" version="24.2.5" type="github">
  <diagram name="Page-1" id="ls0OqXKOOc1NNHJjXUkf">
    <mxGraphModel dx="1161" dy="674" grid="1" gridSize="10" guides="1" tooltips="1" connect="1" arrows="1" fold="1" page="1" pageScale="1" pageWidth="850" pageHeight="1100" math="0" shadow="0">
      <root>
        <mxCell id="0" />
        <mxCell id="1" parent="0" />
        <mxCell id="rqN47r9RRCQwwAanndwr-1" value="Node ID" style="rounded=0;whiteSpace=wrap;html=1;fontSize=20;fontStyle=1" vertex="1" parent="1">
          <mxGeometry x="120" y="200" width="120" height="40" as="geometry" />
        </mxCell>
        <mxCell id="rqN47r9RRCQwwAanndwr-2" value="&lt;font style=&quot;font-size: 26px;&quot;&gt;,&lt;/font&gt;" style="rounded=0;whiteSpace=wrap;html=1;fontSize=26;verticalAlign=middle;horizontal=1;labelPosition=center;verticalLabelPosition=middle;align=center;spacing=10;spacingBottom=13;fontStyle=1" vertex="1" parent="1">
          <mxGeometry x="240" y="200" width="40" height="40" as="geometry" />
        </mxCell>
        <mxCell id="rqN47r9RRCQwwAanndwr-3" value="Custom Epoch Time" style="rounded=0;whiteSpace=wrap;html=1;fontSize=20;fontStyle=1" vertex="1" parent="1">
          <mxGeometry x="280" y="200" width="280" height="40" as="geometry" />
        </mxCell>
      </root>
    </mxGraphModel>
  </diagram>
</mxfile>
